<?xml version="1.0" encoding="utf-8"?>
<!-- Generator: Adobe Illustrator 23.0.6, SVG Export Plug-In . SVG Version: 6.00 Build 0)  -->
<svg version="1.1"
	 id="svg3769" xmlns:cc="http://creativecommons.org/ns#" xmlns:dc="http://purl.org/dc/elements/1.1/" xmlns:inkscape="http://www.inkscape.org/namespaces/inkscape" xmlns:rdf="http://www.w3.org/1999/02/22-rdf-syntax-ns#" xmlns:sodipodi="http://sodipodi.sourceforge.net/DTD/sodipodi-0.dtd" xmlns:svg="http://www.w3.org/2000/svg"
	 xmlns="http://www.w3.org/2000/svg" xmlns:xlink="http://www.w3.org/1999/xlink" x="0px" y="0px" viewBox="0 0 77.76 20.12"
	 style="enable-background:new 0 0 77.76 20.12;" xml:space="preserve">
<sodipodi:namedview  bordercolor="#666666" borderopacity="1.0" fit-margin-bottom="0" fit-margin-left="0" fit-margin-right="0" fit-margin-top="0" id="base" inkscape:current-layer="layer1" inkscape:cx="59.04975" inkscape:cy="9.8114313" inkscape:document-units="px" inkscape:pageopacity="0.0" inkscape:pageshadow="2" inkscape:window-height="744" inkscape:window-maximized="1" inkscape:window-width="1280" inkscape:window-x="-4" inkscape:window-y="-4" inkscape:zoom="7.6630299" pagecolor="#ffffff" showgrid="false" units="px">
	</sodipodi:namedview>
<g>
	<path d="M0.67,16.31c0.71-0.89,1.66-0.68,2.59-0.57c0.67,0.09,1.33,0.25,2.01,0.26c0.43,0.01,0.72-0.16,1-0.47
		c0.53-0.59,0.92-1.29,1.48-1.85c0.91-0.91,1.95-1.55,3.17-1.98c2.05-0.72,4.16-1.29,6.18-2.11c1.71-0.7,3.01-1.83,3.93-3.43
		c0.6-1.05,1.18-2.11,1.93-3.07c1.01-1.27,2.31-1.94,3.93-1.93c0.86,0.01,1.59-0.36,2.35-0.66c0.06,0,0.13,0,0.19,0
		c0.32,0.12,0.42,0.37,0.42,0.69c0,0.87-0.29,1.62-0.96,2.18c-0.45,0.37-0.92,0.71-1.39,1.05c-0.65,0.46-1.05,1.06-1.24,1.84
		c-0.37,1.6-0.66,3.22-1.17,4.79c-0.45,1.4-1,2.76-2.04,3.86c-0.32,0.34-0.69,0.63-1.11,0.85c-0.24,0.12-0.37,0.11-0.33-0.21
		c0.03-0.24,0.03-0.48-0.02-0.74c-0.14,0.3-0.27,0.6-0.41,0.9c-0.94,1.91-2.33,3.27-4.47,3.75c-0.03,0.01-0.06,0.02-0.09,0.02
		c-0.24,0.03-0.58,0.15-0.69-0.03c-0.14-0.23,0.22-0.37,0.35-0.55c1.02-1.31,1.74-2.74,1.88-4.44c-0.15-0.01-0.14,0.12-0.17,0.18
		c-0.04,0.07-0.06,0.15-0.09,0.23c-0.14,0.38-0.26,0.76-0.47,1.11c-0.22,0.36-0.52,0.53-0.95,0.55c-1.1,0.03-2.19-0.1-3.27-0.25
		c-0.96-0.13-1.93-0.2-2.89-0.13c-1.1,0.08-2.05,0.57-2.93,1.17c-1.02,0.69-2.11,1.25-3.22,1.76c-0.5,0.23-1.03,0.38-1.56,0.52
		c-0.39,0-0.77,0-1.16,0c-0.16-0.25-0.09-0.5,0.05-0.72c0.2-0.31,0.41-0.61,0.62-0.91c0.11-0.15,0.23-0.31,0-0.44
		c-0.51-0.3-0.9-0.78-1.45-1.02C0.67,16.44,0.67,16.37,0.67,16.31z"/>
	<path d="M77.19,12.34c-0.32,1.16-0.84,1.57-2.05,1.68c-1.37,0.12-2.74,0.03-4.11,0.06c-0.32,0.01-0.47-0.12-0.46-0.46
		c0.01-2.06,0.01-4.13,0-6.19c0-0.26,0.07-0.45,0.37-0.44c1.47,0.03,2.94-0.12,4.4,0.09c1.19,0.17,1.79,1.01,1.56,2.17
		c-0.1,0.51-0.41,0.86-1,1.09c0.81,0.26,1.15,0.8,1.29,1.5C77.19,12.02,77.19,12.18,77.19,12.34z M73.16,13.37
		c0.61,0,1.22,0.02,1.83-0.08c0.73-0.12,1.11-0.49,1.13-1.16c0.03-0.77-0.28-1.18-1.05-1.32c-1.09-0.19-2.18-0.05-3.28-0.08
		c-0.24-0.01-0.28,0.16-0.28,0.36c0,0.63,0.01,1.26,0,1.88c-0.01,0.29,0.1,0.41,0.39,0.4C72.32,13.36,72.74,13.37,73.16,13.37z
		 M73.34,10.01c0-0.01,0-0.02,0-0.03c0.5,0,1,0.03,1.5-0.01c0.79-0.06,1.15-0.52,1.07-1.3c-0.06-0.6-0.44-0.92-1.2-0.95
		c-0.94-0.03-1.87-0.01-2.81-0.01c-0.26,0-0.39,0.08-0.39,0.36c0.01,0.52,0.01,1.03,0,1.55c-0.01,0.31,0.15,0.39,0.42,0.38
		C72.4,10,72.87,10.01,73.34,10.01z"/>
	<path d="M30.9,9.37c-0.29,1.15-0.57,2.27-0.85,3.39c-0.04,0.16-0.08,0.31-0.11,0.47c-0.22,0.9-0.22,0.88-1.16,0.86
		c-0.42-0.01-0.49-0.16-0.39-0.54c0.46-1.73,0.9-3.46,1.34-5.2c0.05-0.19,0.1-0.37,0.15-0.56c0.21-0.84,0.21-0.82,1.06-0.81
		c0.37,0,0.5,0.2,0.63,0.49c0.64,1.44,1.3,2.88,1.95,4.32c0.05,0.11,0.07,0.25,0.25,0.35c0.32-0.7,0.63-1.4,0.95-2.1
		c0.4-0.88,0.81-1.76,1.18-2.65c0.24-0.58,0.71-0.37,1.12-0.4c0.4-0.03,0.41,0.3,0.47,0.56c0.52,2,1.03,4,1.56,5.99
		c0.11,0.42,0,0.58-0.42,0.54c-0.06-0.01-0.13,0-0.19,0c-0.75,0-0.75,0-0.92-0.72c-0.28-1.16-0.56-2.32-0.84-3.48
		c-0.04-0.15-0.05-0.32-0.18-0.46C36.3,9.58,36.25,9.8,36.16,10c-0.55,1.2-1.11,2.4-1.62,3.62c-0.19,0.45-0.5,0.46-0.89,0.48
		c-0.39,0.01-0.61-0.13-0.77-0.5c-0.54-1.26-1.11-2.5-1.68-3.75C31.13,9.69,31.11,9.5,30.9,9.37z"/>
	<path d="M44.06,9.41c0.13-0.19-0.02-0.5,0.28-0.53c0.36-0.04,0.74-0.11,1.09,0.06c0.13,0.06,0.1,0.23,0.1,0.35
		c0,1.45,0,2.9,0.01,4.36c0,0.31-0.13,0.44-0.43,0.44c-0.11,0-0.23,0-0.34,0c-0.39,0.03-0.73-0.01-0.66-0.56
		c-1.73,0.93-3.26,0.76-4.16-0.42c-0.79-1.03-0.73-2.61,0.09-3.54C40.78,8.74,42.63,8.32,44.06,9.41z M42.53,9.84
		c-0.97,0-1.63,0.65-1.62,1.6c0,0.97,0.68,1.65,1.65,1.65c0.96,0,1.59-0.63,1.6-1.61C44.16,10.47,43.53,9.84,42.53,9.84z"/>
	<path d="M58.8,9.39c0.13-0.15-0.03-0.46,0.26-0.5c0.37-0.05,0.74-0.1,1.09,0.04c0.14,0.06,0.12,0.22,0.12,0.34c0,1.47,0,2.93,0,4.4
		c0,0.29-0.11,0.42-0.4,0.42c-0.13,0-0.26,0-0.39,0c-0.37,0-0.77,0.04-0.62-0.58c-1.57,0.94-3.16,0.81-4.1-0.28
		c-0.84-0.97-0.88-2.58-0.09-3.54C55.59,8.58,57.12,8.46,58.8,9.39z M57.28,9.84c-0.99-0.01-1.66,0.65-1.64,1.62
		c0.01,0.93,0.69,1.61,1.62,1.63c0.98,0.01,1.66-0.64,1.67-1.61C58.94,10.52,58.26,9.85,57.28,9.84z"/>
	<path d="M62.16,10.5c0-1,0-2,0-3c0-0.29,0.04-0.52,0.41-0.51c1.26,0.04,2.52-0.09,3.77,0.08c1.91,0.27,3.1,1.68,3.03,3.57
		c-0.07,1.93-1.32,3.21-3.24,3.38c-1.16,0.1-2.32,0.03-3.48,0.06c-0.35,0.01-0.49-0.13-0.48-0.49
		C62.17,12.57,62.16,11.53,62.16,10.5z M63.17,10.49c0,0.79,0,1.58,0,2.37c0,0.2,0,0.43,0.27,0.43c0.98,0,1.97,0.14,2.94-0.09
		c1.33-0.32,1.98-1.4,1.88-3.02c-0.08-1.28-0.88-2.16-2.14-2.37c-0.83-0.14-1.67-0.05-2.51-0.09c-0.34-0.02-0.46,0.12-0.45,0.45
		C63.18,8.94,63.17,9.72,63.17,10.49z"/>
	<path d="M48.57,9.62c0.61-0.66,1.28-1.01,2.15-0.82c0.19,0.04,0.44,0.05,0.36,0.33c-0.09,0.3-0.01,0.71-0.47,0.8
		c-0.11,0.02-0.22-0.01-0.34-0.02c-0.98-0.07-1.7,0.54-1.73,1.52c-0.03,0.69-0.02,1.39-0.01,2.08c0.01,0.4-0.13,0.58-0.55,0.58
		c-0.93,0.01-0.93,0.02-0.93-0.92c0-1.26,0.01-2.52-0.01-3.77c-0.01-0.43,0.15-0.6,0.57-0.55c0.05,0,0.1,0,0.15,0
		C48.48,8.85,48.48,8.85,48.57,9.62z"/>
	<path d="M51.7,11.04c0-0.56,0.01-1.13-0.01-1.69c-0.01-0.39,0.15-0.53,0.52-0.5c0.05,0,0.1,0,0.15,0c0.81-0.01,0.82,0,0.82,0.79
		c0,0.92,0,1.84,0,2.76c0,0.25-0.01,0.46,0.34,0.59c0.31,0.12,0.27,0.55,0.27,0.86c0,0.25-0.26,0.24-0.45,0.27
		c-1.01,0.19-1.56-0.21-1.63-1.24C51.67,12.27,51.71,11.66,51.7,11.04C51.7,11.04,51.7,11.04,51.7,11.04z"/>
	<path d="M52.41,6.88c0.46-0.01,0.77,0.28,0.78,0.72c0.01,0.42-0.32,0.76-0.76,0.76c-0.44,0-0.75-0.32-0.75-0.76
		C51.69,7.15,51.96,6.89,52.41,6.88z"/>
</g>
</svg>
